<svg xmlns="http://www.w3.org/2000/svg" width="986.896" height="145.507"><defs><clipPath id="a"><path fill="#fff" d="M0 0h805.535v74.969H0z" data-name="Rectangle 5"/></clipPath><clipPath id="b"><path fill="none" d="M56.854 2.294 8.331 30.309A16.273 16.273 0 0 0 0 44.739v56.029a16.272 16.272 0 0 0 8.331 14.43l48.523 28.015a16.272 16.272 0 0 0 16.662 0l48.523-28.015a16.273 16.273 0 0 0 8.331-14.43V44.739a16.273 16.273 0 0 0-8.331-14.43L73.516 2.294a16.272 16.272 0 0 0-16.662 0" data-name="Path 1"/></clipPath><linearGradient id="c" x1=".108" x2=".997" y1=".913" y2=".891" gradientUnits="objectBoundingBox"><stop offset="0" stop-color="#bf0fc9"/><stop offset="1" stop-color="#eb1b9f"/><stop offset="1" stop-color="#31b0fd"/></linearGradient></defs><g data-name="Group 39"><g clip-path="url(#a)" data-name="Group 11" transform="translate(181.361 36)"><path fill="#fff" fill-rule="evenodd" d="M0 1.244h17.19l19.051 30.65 19.053-30.65h17.19v72.483H56.746v-47.32l-20.4 30.961h-.416L15.739 26.717v47.01H0zm97.775 0h54.57V15.43h-38.831v14.7h34.172v14.19h-34.172v15.221h39.349v14.186H97.775zm105.543 58.09a24.623 24.623 0 0 0 8.906-1.553 19.148 19.148 0 0 0 6.886-4.452 20.943 20.943 0 0 0 4.452-6.833 23.118 23.118 0 0 0 1.606-8.8v-.207a23.615 23.615 0 0 0-1.606-8.8 20.644 20.644 0 0 0-4.452-6.938 19.7 19.7 0 0 0-6.886-4.5 23.88 23.88 0 0 0-8.906-1.606H191v43.7zm-28.267-58.09h28.267A42.849 42.849 0 0 1 218.9 3.988a36.826 36.826 0 0 1 12.22 7.613 33.9 33.9 0 0 1 7.923 11.442 36.015 36.015 0 0 1 2.794 14.238v.207a36.391 36.391 0 0 1-2.794 14.289 33.779 33.779 0 0 1-7.923 11.495 37.47 37.47 0 0 1-12.22 7.659 42.148 42.148 0 0 1-15.584 2.8h-28.265zm89.6 0h15.945v72.483h-15.949zm83.589 42.145-9.629-23.507-9.631 23.507zM331.461.726h14.7l31.065 73h-16.668l-6.628-16.257h-30.65l-6.626 16.257H300.4zm124.491 37.075q6.007 0 9.319-3.159a10.365 10.365 0 0 0 3.314-7.818v-.205q0-5.388-3.469-8.181t-9.474-2.8h-12.323v22.163zM427.373 1.244h29.615a34.812 34.812 0 0 1 11.65 1.813 24.745 24.745 0 0 1 8.7 5.125 22.393 22.393 0 0 1 5.487 7.921 26.326 26.326 0 0 1 1.916 10.2v.205a25.407 25.407 0 0 1-2.278 11.08 22.58 22.58 0 0 1-6.265 7.973 27.156 27.156 0 0 1-9.319 4.815 39.528 39.528 0 0 1-11.442 1.606h-12.118v21.745h-15.946zm77.068 0h15.947v58.09h36.138v14.393h-52.085zM618.06 43.389l-9.631-23.507-9.629 23.507zM601.285.726h14.7l31.063 73h-16.67l-6.628-16.257H593.1l-6.626 16.257H570.22zM700.1 74.97a37.5 37.5 0 0 1-14.806-2.9 36.4 36.4 0 0 1-11.8-7.921 36.043 36.043 0 0 1-7.766-11.855 38.19 38.19 0 0 1-2.8-14.6v-.207a37.8 37.8 0 0 1 2.8-14.549 37.4 37.4 0 0 1 7.766-11.91 36.02 36.02 0 0 1 11.907-8.076A38.752 38.752 0 0 1 700.718.001a47.991 47.991 0 0 1 9.269.828 38.9 38.9 0 0 1 7.613 2.278 33.134 33.134 0 0 1 6.315 3.521 42.854 42.854 0 0 1 5.385 4.557l-10.147 11.7a38.336 38.336 0 0 0-8.648-6.005 22.005 22.005 0 0 0-9.889-2.176 20.218 20.218 0 0 0-8.439 1.761 19.981 19.981 0 0 0-6.678 4.867 22.685 22.685 0 0 0-4.349 7.2 24.43 24.43 0 0 0-1.553 8.749v.207a24.841 24.841 0 0 0 1.553 8.8 23.063 23.063 0 0 0 4.3 7.25 19.941 19.941 0 0 0 15.169 6.73 22.213 22.213 0 0 0 10.512-2.278 40.774 40.774 0 0 0 8.541-6.213l10.149 10.252a52.572 52.572 0 0 1-5.8 5.383 34.482 34.482 0 0 1-6.581 4.089 34.094 34.094 0 0 1-7.818 2.589 47.14 47.14 0 0 1-9.527.88m50.352-73.726h54.57V15.43h-38.83v14.7h34.172v14.19h-34.172v15.221h39.349v14.186h-55.089z" data-name="Path 6"/></g><g data-name="Group 12"><g data-name="Group 9"><g clip-path="url(#b)" data-name="Group 1"><path fill="url(#c)" d="M0 0h175.31v177.187H0z" data-name="Rectangle 1" transform="rotate(-16.439 6.243 188.125)"/></g></g><path fill="#fff" fill-rule="evenodd" d="M43.974 105.818V61.733l4.243-2.448 16.968-9.8 16.97-9.8 8.484-4.9-8.484-4.9-21.212 12.252-21.21 12.248-4.244 2.45v53.881l8.485 4.9zm16.969 9.8V71.529l4.243-2.451 16.968-9.8 16.973-9.793 8.484-4.9-8.484-4.9-21.215 12.248-21.21 12.252-4.244 2.45v53.881l8.484 4.9zm25.456 0 25.452-14.7V51.935l-8.485 4.9-8.487 4.9-25.452 14.694v48.986l8.485-4.9V81.327l21.21-12.242 4.244-2.451v29.391l-16.97 9.8v9.8zm8.483-34.289-8.484 4.9v9.8l8.485-4.9zm-67.877 14.7V51.937l4.243-2.452 16.968-9.8 16.97-9.8 8.484-4.9-8.484-4.9-21.212 12.256-21.21 12.244-4.244 2.45v53.881l8.485 4.9z" data-name="Path 5"/></g></g></svg>